<?xml version="1.0" standalone="no"?>
<!DOCTYPE svg PUBLIC "-//W3C//DTD SVG 20010904//EN"
 "http://www.w3.org/TR/2001/REC-SVG-20010904/DTD/svg10.dtd">
<svg version="1.0" xmlns="http://www.w3.org/2000/svg"
 width="594.000000pt" height="567.000000pt" viewBox="0 0 594.000000 567.000000"
 preserveAspectRatio="xMidYMid meet">
<metadata>
Created by potrace 1.13, written by Peter Selinger 2001-2015
</metadata>
<g transform="translate(0.000000,567.000000) scale(0.100000,-0.100000)"
fill="#000000" stroke="none">
<path d="M0 2835 l0 -2835 2970 0 2970 0 0 2835 0 2835 -2970 0 -2970 0 0
-2835z m3294 2704 c50 -23 106 -54 124 -70 18 -16 37 -29 43 -29 16 0 177
-168 216 -225 18 -27 44 -64 56 -82 12 -18 32 -47 44 -65 13 -18 34 -58 49
-88 14 -30 35 -67 46 -82 11 -16 24 -44 29 -64 6 -19 23 -50 39 -68 31 -35 69
-110 70 -136 0 -8 14 -35 30 -60 17 -26 30 -58 30 -76 0 -48 19 -90 45 -102
28 -13 40 -49 31 -95 -4 -17 -9 -57 -12 -87 -9 -80 -27 -97 -64 -60 -17 17
-20 33 -20 104 0 72 -3 87 -19 98 -10 7 -35 35 -56 62 -27 35 -36 55 -32 74 6
31 -38 126 -96 209 -15 22 -44 80 -64 129 -20 49 -45 100 -55 114 -11 14 -30
41 -43 60 -75 111 -101 142 -173 215 -103 103 -150 141 -206 165 -25 10 -60
29 -77 42 -27 20 -42 23 -132 23 -100 0 -103 -1 -172 -39 -90 -51 -163 -117
-222 -203 l-48 -68 -5 -119 -5 -119 -35 -26 c-19 -14 -53 -45 -77 -67 -36 -35
-43 -48 -43 -79 0 -21 -11 -66 -24 -99 -14 -34 -29 -88 -35 -121 -5 -33 -19
-77 -29 -98 -15 -27 -18 -46 -12 -70 10 -46 -13 -181 -50 -289 -35 -104 -36
-114 -14 -157 19 -38 16 -52 -31 -155 -32 -71 -38 -78 -58 -71 -12 4 -40 9
-62 12 -37 4 -41 2 -52 -26 -6 -17 -18 -31 -27 -31 -25 0 -19 38 10 56 20 14
24 22 19 43 -10 38 -24 51 -56 51 -45 0 -77 -17 -135 -72 -50 -47 -56 -50 -80
-40 -38 18 -72 15 -84 -7 -23 -44 -80 -33 -80 16 0 31 -29 42 -46 18 -23 -31
-17 -55 16 -66 39 -14 40 -51 2 -87 -31 -30 -72 -96 -72 -117 0 -16 22 -25 61
-25 24 0 32 7 49 43 11 23 33 50 50 59 18 10 32 29 37 49 13 47 30 47 43 0 6
-25 18 -42 30 -46 23 -7 93 31 135 75 16 16 37 30 48 30 20 0 20 -7 1 -91 -9
-42 29 -72 83 -66 55 6 91 30 109 73 8 19 18 34 23 34 4 0 16 -18 26 -40 15
-34 17 -57 12 -157 -5 -87 -3 -134 8 -179 7 -33 19 -110 25 -170 6 -60 19
-143 29 -184 11 -41 22 -104 26 -140 9 -93 80 -428 99 -473 23 -53 37 -131 37
-204 0 -36 8 -86 20 -120 11 -32 26 -87 35 -122 8 -35 30 -90 50 -122 19 -32
42 -81 50 -110 14 -48 45 -115 97 -214 11 -22 24 -62 28 -88 5 -27 21 -69 38
-93 16 -25 33 -60 36 -77 4 -18 18 -47 32 -65 14 -18 29 -50 35 -70 6 -20 22
-52 37 -71 14 -19 35 -49 46 -67 38 -61 102 -139 173 -209 160 -158 197 -174
302 -131 76 31 94 32 160 6 55 -22 95 -25 132 -11 39 15 198 187 198 214 0 7
16 34 35 61 19 27 35 55 35 62 0 6 14 38 31 70 17 33 40 88 49 124 24 86 51
162 63 178 5 7 33 24 60 38 48 24 52 24 64 8 21 -29 15 -90 -16 -167 -15 -40
-34 -97 -41 -127 -7 -30 -21 -71 -32 -90 -11 -19 -28 -57 -38 -85 -9 -27 -31
-72 -49 -99 -17 -28 -31 -55 -31 -61 0 -7 -10 -23 -22 -37 -13 -13 -36 -41
-52 -63 -44 -58 -146 -155 -186 -176 -45 -24 -80 -56 -106 -96 -11 -18 -42
-47 -69 -64 -43 -27 -56 -31 -105 -27 -45 3 -64 11 -108 43 -28 22 -52 43 -52
47 0 10 -105 87 -139 101 -78 33 -257 200 -319 297 -20 30 -39 57 -44 58 -5 2
-20 26 -33 52 -14 27 -30 52 -36 56 -6 3 -22 30 -34 58 -13 29 -30 58 -39 65
-8 7 -25 38 -36 69 -25 67 -99 143 -157 163 -20 6 -69 28 -108 48 -66 33 -75
35 -161 34 -114 -1 -124 4 -101 52 20 43 12 66 -31 84 -16 7 -34 24 -41 37 -6
14 -26 31 -44 39 -34 14 -77 56 -96 92 -10 20 -8 24 19 38 25 13 31 22 28 43
-2 20 -10 28 -34 33 -17 3 -41 16 -52 27 -12 12 -30 22 -40 22 -9 0 -39 18
-67 40 -27 22 -67 49 -88 60 -32 17 -45 35 -73 96 -19 41 -34 84 -34 95 0 17
5 19 58 13 81 -9 104 -22 122 -71 23 -62 32 -69 76 -55 21 6 41 9 44 7 4 -3
13 -25 19 -50 6 -25 26 -62 45 -83 18 -20 36 -49 40 -64 4 -19 13 -28 27 -28
31 0 59 19 59 39 0 26 -26 85 -44 100 -8 7 -22 36 -30 66 -17 56 -27 68 -66
80 -14 4 -53 36 -87 70 -48 48 -65 73 -74 109 -13 51 -39 76 -80 76 -19 0 -35
10 -51 31 -53 71 -67 80 -105 77 -31 -3 -38 -8 -47 -35 -6 -17 -14 -35 -18
-38 -15 -15 -46 8 -61 46 -14 35 -19 40 -44 37 -19 -2 -33 -12 -43 -33 -9 -16
-28 -49 -44 -72 -36 -54 -43 -114 -21 -173 29 -77 30 -107 4 -163 -21 -43 -31
-54 -77 -74 -65 -28 -82 -62 -82 -160 1 -91 13 -139 54 -206 44 -74 102 -130
163 -157 26 -11 57 -30 69 -41 19 -17 42 -22 155 -29 74 -5 186 -8 249 -8 114
1 160 -5 160 -22 0 -18 -110 -30 -288 -30 -184 0 -252 9 -282 35 -9 8 -37 19
-64 25 -62 14 -79 23 -142 77 -116 101 -164 219 -164 409 0 80 -4 106 -26 161
-45 112 -25 190 61 237 26 15 47 36 58 62 10 21 29 55 42 74 13 19 31 54 39
78 9 24 25 55 36 69 11 15 29 45 40 67 11 23 31 55 43 73 22 29 24 44 30 212
7 193 3 220 -38 253 -31 25 -31 35 1 69 24 25 27 38 36 151 13 174 41 220 78
134 24 -58 40 -59 40 -3 0 49 -8 63 -34 68 -37 8 -40 31 -18 125 12 48 33 105
46 125 14 20 30 56 36 80 26 95 132 278 222 380 32 37 58 72 58 78 0 6 15 28
34 48 18 21 36 50 40 65 7 30 35 43 72 34 22 -6 25 -11 19 -34 -7 -35 14 -66
38 -56 10 3 24 21 32 40 11 26 22 35 56 44 48 13 42 27 -16 32 -35 3 -40 6
-43 30 -3 22 4 32 37 53 23 14 41 29 41 34 0 5 17 20 38 32 20 13 61 46 90 73
60 58 79 105 89 223 5 59 2 82 -17 136 -28 78 -23 119 23 178 24 32 45 46 84
59 53 17 74 36 115 103 13 21 40 59 61 85 20 26 37 50 37 54 0 11 132 114 175
136 22 11 58 29 80 41 34 18 56 21 158 21 118 0 120 0 211 -41z"/>
<path d="M2236 4242 c-3 -6 -23 -16 -44 -22 -72 -22 -82 -31 -99 -89 -28 -99
-41 -116 -104 -147 -32 -15 -61 -36 -65 -46 -3 -11 -21 -26 -40 -35 -32 -16
-34 -20 -34 -65 0 -40 3 -48 19 -48 23 0 107 46 124 69 6 9 24 24 39 34 15 9
35 32 44 50 9 17 23 36 30 40 9 5 14 25 14 52 0 47 24 75 63 75 29 0 77 54 77
87 0 33 -14 60 -24 45z"/>
<path d="M1710 3315 c-7 -8 -20 -30 -29 -48 -15 -30 -20 -32 -73 -35 l-58 -3
0 -62 c0 -58 -2 -63 -30 -79 -19 -11 -38 -35 -50 -63 -25 -58 -25 -72 0 -85
29 -15 58 3 77 48 24 59 31 64 65 46 16 -8 41 -14 56 -12 23 2 30 11 43 52 8
28 20 51 25 53 6 2 17 -18 25 -44 12 -40 19 -49 40 -51 18 -2 31 4 41 20 9 13
43 52 77 88 68 72 88 119 68 159 -7 14 -20 27 -30 29 -33 6 -101 -28 -120 -59
-22 -39 -38 -34 -52 17 -8 31 -16 40 -36 42 -14 2 -31 -4 -39 -13z"/>
<path d="M2063 3060 c-9 -16 -20 -30 -24 -30 -4 0 -34 -27 -68 -60 -58 -58
-61 -63 -61 -108 0 -55 12 -72 52 -72 35 0 96 53 115 99 8 19 26 51 39 70 23
34 31 82 18 115 -10 27 -51 19 -71 -14z"/>
<path d="M2112 2827 c-39 -40 -44 -51 -58 -127 -16 -91 -11 -156 15 -210 35
-76 114 -39 174 82 35 70 39 85 40 163 2 83 1 88 -26 111 -19 16 -40 24 -65
24 -31 0 -45 -8 -80 -43z"/>
<path d="M1755 2651 c-17 -10 -47 -23 -66 -30 -42 -14 -61 -44 -63 -99 -1 -41
16 -72 40 -72 7 0 24 18 36 40 13 22 26 40 30 40 10 0 25 -64 33 -143 10 -100
48 -127 86 -62 37 62 46 49 64 -87 12 -91 17 -106 53 -157 29 -41 46 -56 63
-56 38 0 50 49 43 180 -9 165 -31 202 -126 220 -43 8 -51 23 -42 80 17 120
-64 199 -151 146z"/>
<path d="M2223 2363 c-23 -56 -14 -171 18 -220 14 -21 31 -51 40 -68 20 -40
53 -44 75 -10 15 23 16 35 5 113 -26 183 -43 222 -97 222 -20 0 -28 -8 -41
-37z"/>
<path d="M2147 2052 c-21 -23 -22 -92 -4 -153 8 -24 35 -75 60 -112 26 -38 47
-73 47 -79 0 -5 -9 -21 -20 -35 -13 -17 -20 -41 -20 -69 0 -36 5 -47 26 -61
15 -9 33 -32 41 -50 7 -19 25 -38 38 -43 14 -5 30 -21 35 -35 17 -44 90 -29
90 18 0 19 -13 37 -112 152 -57 65 -61 93 -18 101 16 4 35 13 41 20 16 20 5
102 -19 145 -11 19 -27 57 -36 84 -18 56 -85 135 -114 135 -10 0 -26 -8 -35
-18z"/>
</g>
</svg>
